<?xml version="1.0" standalone="no"?>
<!DOCTYPE svg PUBLIC "-//W3C//DTD SVG 20010904//EN"
 "http://www.w3.org/TR/2001/REC-SVG-20010904/DTD/svg10.dtd">
<svg version="1.0" xmlns="http://www.w3.org/2000/svg"
 width="220.000000pt" height="220.000000pt" viewBox="0 0 220.000000 220.000000"
 preserveAspectRatio="xMidYMid meet">
<metadata>
Created by potrace 1.10, written by Peter Selinger 2001-2011
</metadata>
<g transform="translate(0.000000,220.000000) scale(0.100000,-0.100000)"
fill="#000000" stroke="none">
<path d="M1077 2169 c-4 -16 -11 -20 -26 -16 -25 6 -28 -8 -5 -17 11 -4 14
-13 10 -31 -7 -27 3 -32 22 -13 9 9 15 9 24 0 19 -19 29 -14 22 12 -4 18 -1
27 14 35 24 13 32 6 32 -30 0 -34 -36 -76 -72 -85 -22 -5 -34 0 -59 25 -28 28
-31 37 -26 71 6 49 -8 43 -24 -8 -15 -53 7 -106 55 -129 74 -35 164 27 152
106 -6 38 -37 92 -44 73 -2 -6 -15 -12 -28 -12 -17 0 -24 6 -24 20 0 27 -16
26 -23 -1z"/>
<path d="M910 1978 c-62 -62 -94 -135 -88 -204 6 -68 28 -99 102 -143 69 -41
72 -61 14 -99 -69 -44 -190 -173 -220 -233 -63 -126 -72 -251 -28 -392 34
-109 120 -220 205 -262 22 -11 42 -21 44 -22 2 -1 -13 -16 -34 -34 -20 -18
-45 -50 -56 -72 -19 -36 -22 -38 -37 -24 -11 12 -15 32 -13 76 3 66 -12 106
-58 161 l-28 34 -7 -42 c-10 -64 -25 -50 -19 18 5 56 -21 200 -37 200 -3 0
-12 -16 -19 -35 -12 -35 -25 -44 -36 -25 -3 6 -2 10 3 10 22 0 42 73 42 153
l-1 82 -28 -32 c-29 -31 -41 -33 -41 -5 0 9 3 12 7 9 14 -15 54 40 73 101 26
83 26 96 1 82 -24 -12 -41 -13 -41 -1 0 5 15 12 33 15 19 3 43 16 54 29 19 21
73 113 73 125 0 2 -20 2 -45 0 -37 -5 -45 -3 -45 11 0 9 -6 23 -12 30 -9 9 -2
8 19 -3 65 -32 110 -15 158 63 39 61 34 75 -23 65 l-33 -6 7 42 7 42 -30 -6
c-29 -7 -30 -6 -42 50 l-13 57 -25 -29 c-85 -101 -100 -156 -59 -217 21 -31
22 -36 8 -42 -14 -5 -31 9 -32 26 0 4 -7 23 -16 44 l-15 37 -27 -43 c-58 -94
-67 -150 -32 -207 17 -27 18 -37 9 -49 -11 -12 -16 -8 -35 29 l-22 43 -16 -38
c-19 -47 -31 -128 -22 -161 3 -14 20 -42 37 -61 18 -20 28 -39 24 -43 -4 -4
-21 10 -38 30 l-32 38 -2 -86 c-3 -96 10 -139 53 -179 15 -14 35 -25 45 -25
12 0 16 -5 13 -15 -6 -13 -11 -13 -41 5 -20 11 -37 19 -39 17 -2 -2 6 -37 17
-78 33 -119 81 -164 148 -141 26 9 28 8 23 -10 -4 -18 -11 -20 -53 -16 -53 5
-53 6 -5 -57 64 -84 117 -111 167 -85 20 11 25 10 45 -16 16 -19 21 -36 17
-55 -3 -15 2 -52 11 -82 13 -43 27 -65 65 -99 44 -40 141 -88 176 -88 7 0 15
-11 17 -25 6 -27 -3 -31 -33 -15 -12 7 -19 7 -19 1 0 -17 63 -101 75 -101 7 0
26 23 44 51 l32 51 -36 -6 c-34 -7 -36 -5 -33 15 2 16 16 25 58 38 76 24 109
43 152 88 47 48 70 104 67 158 -4 57 27 103 59 86 52 -28 103 -4 166 79 25 33
46 62 46 64 0 2 -22 1 -50 -2 -42 -4 -50 -2 -50 12 0 13 7 15 40 10 36 -6 43
-3 73 27 31 31 48 70 73 172 l6 28 -35 -17 c-20 -10 -33 -22 -30 -28 3 -6 0
-5 -8 3 -12 11 -11 15 5 25 80 49 96 83 96 201 0 47 -2 85 -5 85 -3 0 -18 -15
-34 -32 -41 -46 -48 -31 -8 17 29 36 32 45 32 110 0 46 -6 83 -19 110 l-18 40
-19 -44 c-15 -34 -22 -41 -33 -32 -7 6 -16 7 -21 3 -4 -4 4 11 18 33 44 65 35
138 -25 227 l-26 38 -22 -55 c-12 -30 -26 -55 -31 -55 -19 0 -19 22 0 46 44
55 24 125 -61 217 l-25 27 -12 -56 c-12 -52 -15 -55 -37 -50 -22 6 -24 4 -24
-35 0 -39 -1 -40 -27 -35 -43 9 -59 -6 -44 -41 16 -40 67 -92 98 -99 15 -4 40
-2 57 4 35 14 40 11 32 -16 -6 -17 -13 -19 -53 -14 l-46 5 33 -59 c46 -82 58
-93 102 -100 21 -4 38 -11 38 -16 0 -6 -14 -8 -36 -3 -31 5 -35 4 -30 -12 3
-10 8 -31 12 -48 11 -47 33 -88 61 -111 14 -12 23 -27 19 -33 -4 -6 -18 2 -36
22 l-29 32 -1 -80 c0 -61 5 -90 20 -120 22 -43 24 -55 12 -55 -4 0 -14 16 -21
35 -7 19 -16 33 -21 30 -18 -11 -43 -147 -36 -201 4 -34 2 -54 -4 -54 -9 0
-14 28 -13 68 1 21 -14 13 -41 -23 -41 -54 -58 -103 -55 -159 2 -29 -2 -61
-10 -74 -13 -24 -13 -24 -32 15 -10 22 -37 56 -59 78 l-39 38 42 21 c65 31
146 120 183 201 116 251 37 511 -201 670 -78 52 -78 68 0 120 77 52 97 90 93
170 -3 51 -10 69 -45 121 -40 58 -85 99 -96 88 -3 -3 17 -33 44 -67 52 -64 69
-107 69 -171 0 -40 -20 -65 -119 -147 -24 -21 -31 -35 -31 -62 0 -30 7 -41 53
-78 197 -160 280 -330 249 -512 -23 -131 -91 -232 -212 -312 -39 -26 -68 -51
-64 -56 3 -5 18 -16 34 -24 46 -24 82 -95 88 -175 4 -61 2 -74 -22 -113 -30
-53 -86 -97 -163 -128 -55 -22 -56 -22 -110 -4 -79 27 -152 82 -181 135 -20
38 -23 55 -19 111 5 81 35 138 89 174 45 30 41 43 -24 76 -57 29 -144 123
-178 192 -102 208 -37 429 181 612 74 62 79 68 79 105 0 33 -5 43 -37 67 -90
70 -105 87 -110 134 -6 57 19 119 76 187 23 27 41 51 41 55 0 16 -20 4 -60
-35z m-202 -327 c-20 -23 -38 -68 -38 -94 -1 -21 -1 -22 -15 -3 -24 31 -18 78
17 132 l31 49 9 -34 c7 -24 5 -38 -4 -50z m825 34 c30 -51 35 -101 12 -131
-14 -18 -14 -18 -15 11 0 17 -11 47 -23 68 -21 35 -27 97 -8 97 3 0 18 -20 34
-45z m-763 -46 c0 -25 -53 -99 -71 -99 -4 0 -4 14 1 32 14 46 70 101 70 67z
m703 -19 c45 -53 49 -102 6 -64 -19 16 -49 72 -49 89 0 14 21 2 43 -25z m-659
-65 c-21 -33 -49 -48 -93 -50 -30 -1 -32 0 -16 9 10 6 32 23 49 38 17 15 41
28 54 28 22 0 22 -1 6 -25z m617 9 c7 -8 26 -22 42 -31 25 -13 28 -17 15 -24
-10 -5 -27 -5 -41 0 -26 10 -67 49 -67 63 0 14 37 9 51 -8z m-848 -107 c-8
-16 -15 -44 -16 -63 -2 -38 -11 -43 -27 -15 -15 30 -12 71 11 121 l21 45 13
-30 c11 -25 11 -35 -2 -58z m1070 36 c20 -56 21 -86 5 -116 -10 -19 -13 -15
-30 48 -29 104 -8 160 25 68z m-1003 -52 c-12 -43 -28 -69 -49 -81 -18 -9 -18
-8 -5 37 16 51 30 73 50 73 9 0 10 -8 4 -29z m936 4 c9 -14 20 -44 24 -67 l8
-40 -23 24 c-29 32 -45 62 -45 87 0 28 16 26 36 -4z m-866 -35 c0 -19 -65 -79
-92 -86 -40 -9 -34 5 23 54 50 42 69 51 69 32z m840 -43 c45 -42 47 -52 6 -41
-28 7 -89 72 -80 86 7 11 22 1 74 -45z m-980 -104 c-6 -46 -34 -113 -46 -113
-15 0 3 120 21 140 27 30 32 25 25 -27z m1074 18 c21 -40 31 -107 17 -115 -18
-11 -51 55 -51 102 0 49 13 54 34 13z m-1154 -73 c0 -64 -12 -75 -29 -27 -12
36 -14 79 -4 105 12 33 33 -15 33 -78z m1242 36 c0 -42 -15 -88 -32 -99 -5 -3
-7 -12 -4 -18 4 -7 4 -9 -1 -5 -4 4 -13 3 -20 -2 -8 -7 -12 -5 -12 5 0 8 4 12
8 9 14 -8 22 18 21 74 0 55 15 99 31 83 4 -4 8 -26 9 -47z m-1128 -69 c-14
-30 -54 -67 -54 -51 0 5 40 81 55 106 18 29 17 -17 -1 -55z m1000 12 c11 -23
22 -45 24 -49 2 -5 -4 -8 -13 -8 -15 0 -54 69 -55 97 0 25 26 1 44 -40z
m-1055 -197 c0 -36 -4 -74 -8 -84 -6 -16 -10 -13 -24 22 -19 49 -22 108 -6
149 l11 28 13 -25 c8 -14 14 -53 14 -90z m1131 49 c8 -42 -13 -139 -30 -139
-21 0 -26 102 -8 162 14 46 27 38 38 -23z m-1210 -24 c0 -18 7 -52 15 -75 15
-43 15 -43 -5 -25 -23 20 -40 74 -40 124 0 29 2 32 15 21 8 -7 15 -27 15 -45z
m1266 -39 c-4 -17 -16 -42 -27 -56 l-21 -25 7 25 c4 14 9 48 12 75 7 65 27 93
31 45 2 -19 1 -47 -2 -64z m-1130 9 c-4 -23 -13 -51 -21 -61 -12 -17 -13 -11
-8 46 6 66 24 111 31 75 2 -9 1 -36 -2 -60z m988 53 c19 -101 23 -144 14 -153
-8 -7 -9 -6 -5 1 4 6 0 25 -9 42 -20 40 -31 132 -16 132 7 0 14 -10 16 -22z
m52 -160 c4 -6 3 -8 -3 -5 -6 4 -10 -12 -12 -39 -1 -51 -18 -89 -51 -119 l-22
-20 7 40 c7 39 21 73 51 128 17 30 20 32 30 15z m-989 -101 c4 -43 2 -67 -6
-71 -7 -5 -11 5 -11 32 0 21 -5 53 -11 71 -6 17 -8 39 -4 49 6 16 7 16 16 0 5
-10 12 -46 16 -81z m898 51 c-5 -24 -9 -67 -9 -96 -1 -51 -2 -52 -13 -25 -15
36 -16 63 -2 119 15 58 34 59 24 2z m-960 -22 c15 -31 25 -66 23 -83 l-3 -28
-29 38 c-18 23 -30 54 -34 82 -6 61 10 58 43 -9z m-85 -6 c10 -5 20 -20 24
-34 3 -13 19 -38 36 -56 36 -39 33 -48 -11 -30 -24 10 -38 27 -55 67 -31 70
-31 73 6 53z m1184 -12 c-24 -79 -41 -102 -87 -113 -32 -8 -36 5 -6 23 11 7
29 33 40 57 18 40 29 52 52 54 5 1 5 -9 1 -21z m-926 -190 c3 -25 1 -38 -7
-38 -6 0 -11 11 -11 24 0 13 -9 34 -19 48 -13 16 -18 33 -14 47 5 21 7 20 26
-11 11 -18 22 -50 25 -70z m683 31 c-12 -19 -21 -42 -21 -51 0 -10 -4 -18 -10
-18 -22 0 1 90 33 128 22 28 20 -22 -2 -59z m-712 -61 c8 -22 7 -28 -3 -28
-20 0 -75 65 -82 98 -4 15 -12 34 -17 42 -6 8 12 -7 41 -34 28 -27 56 -62 61
-78z m791 72 c0 -23 -75 -109 -85 -98 -11 11 5 47 37 84 34 39 48 43 48 14z
m-859 -89 c22 -21 39 -41 39 -44 0 -15 -61 18 -90 48 -33 34 -33 35 -11 35 14
0 39 -16 62 -39z m893 8 c-31 -33 -78 -62 -87 -53 -11 11 68 82 92 83 l25 1
-30 -31z"/>
<path d="M1006 1943 c-4 -5 -18 -8 -29 -8 -13 0 -22 -6 -22 -15 0 -11 11 -15
40 -15 33 0 40 3 40 19 0 21 -16 31 -29 19z"/>
<path d="M972 1829 c2 -50 0 -64 -15 -73 -14 -9 -20 -8 -27 4 -14 22 -30 0
-19 -27 9 -25 29 -29 62 -12 11 7 66 13 121 14 161 3 153 1 160 36 7 35 -10
67 -27 50 -7 -7 -6 -15 3 -26 9 -11 10 -15 0 -15 -6 0 -14 9 -17 20 -7 26 -23
26 -23 1 0 -11 -4 -23 -10 -26 -5 -3 -10 3 -10 14 0 12 -4 21 -10 21 -5 0 -10
-4 -10 -10 0 -5 -10 -14 -21 -21 -18 -9 -24 -8 -32 6 -5 10 -12 13 -16 7 -3
-5 -13 -11 -21 -12 -40 -6 -47 1 -59 55 -17 75 -34 71 -29 -6z"/>
<path d="M1039 1854 c-9 -11 -9 -18 -1 -26 14 -14 42 -3 42 16 0 20 -27 27
-41 10z"/>
<path d="M1203 1700 c-54 -32 -53 -53 1 -29 22 10 42 37 33 45 -1 2 -17 -5
-34 -16z"/>
<path d="M1090 1597 c0 -53 -72 -132 -172 -190 -63 -37 -143 -129 -170 -197
-15 -37 -23 -84 -26 -145 -4 -104 14 -168 73 -250 45 -65 165 -141 165 -106 0
5 -9 13 -20 16 -39 12 -19 23 33 18 28 -3 107 -6 175 -7 l123 -1 -28 -22 c-42
-34 -20 -38 37 -7 62 34 145 121 174 184 17 37 21 65 21 160 0 105 -2 120 -28
175 -34 73 -76 118 -188 201 -85 63 -149 139 -149 177 0 10 -4 17 -10 17 -5 0
-10 -10 -10 -23z m30 -97 c7 -17 32 -48 56 -69 l44 -38 -45 1 c-24 1 -47 5
-50 7 -2 3 -32 4 -66 3 l-61 -3 40 43 c22 24 43 53 47 65 9 29 20 26 35 -9z
m-57 -119 c4 0 7 -7 7 -15 0 -17 -69 -29 -87 -14 -9 7 -17 7 -28 -2 -9 -7 -18
-10 -22 -7 -3 4 5 15 18 26 21 17 60 21 112 12z m205 -19 c34 -22 26 -30 -25
-25 -27 2 -61 5 -78 6 -31 2 -48 15 -39 29 8 13 117 5 142 -10z m-168 -57 c-6
-31 -9 -59 -7 -62 3 -3 9 12 13 32 3 20 10 33 15 28 5 -5 3 -29 -4 -53 -7 -25
-13 -80 -12 -122 0 -43 -3 -78 -7 -78 -14 0 -16 16 -7 64 11 62 4 72 -10 14
l-10 -43 4 45 c2 25 7 59 9 75 3 17 3 22 0 13 -3 -10 -9 -18 -14 -18 -4 0 -6
-10 -2 -22 3 -14 2 -19 -6 -14 -15 9 -16 43 -1 52 13 8 2 76 -13 85 -6 4 -7
12 -4 18 11 18 26 3 27 -27 1 -22 3 -19 11 13 14 59 18 68 24 62 3 -3 0 -31
-6 -62z m-71 21 c-5 -6 -9 -19 -9 -29 0 -15 -5 -18 -20 -14 -17 4 -22 0 -27
-24 -6 -32 -18 -38 -27 -13 -3 8 -2 13 3 10 5 -3 11 6 14 19 2 14 0 28 -4 31
-5 3 -9 -1 -9 -8 0 -9 -3 -9 -10 2 -7 10 -13 11 -17 5 -5 -6 -21 -12 -38 -13
l-30 -1 25 22 c21 18 37 22 92 22 42 0 63 -4 57 -9z m125 -48 c-8 -75 -21 -81
-20 -9 1 41 5 61 13 61 9 0 11 -15 7 -52z m66 32 c0 -13 -29 -32 -40 -25 -5 3
-10 14 -10 24 0 14 6 17 25 13 14 -2 25 -8 25 -12z m129 -19 c13 -23 4 -33
-19 -21 -20 11 -80 2 -80 -11 0 -5 -5 -9 -11 -9 -8 0 -8 4 0 14 8 10 9 16 1
21 -5 3 -10 13 -10 21 0 12 7 14 29 9 17 -3 32 -2 36 4 8 14 41 -3 54 -28z
m-298 -36 c1 -11 -3 -33 -9 -48 -7 -16 -12 -37 -12 -48 0 -10 -4 -19 -10 -19
-5 0 -10 14 -10 31 0 16 4 28 9 25 5 -3 11 8 13 24 3 16 1 31 -4 32 -5 2 -6
11 -2 21 8 21 21 11 25 -18z m-145 -3 c1 -26 -10 -30 -59 -24 l-38 4 20 22
c27 29 76 28 77 -2z m305 -29 c-9 -15 -10 -13 -11 13 0 17 3 34 8 38 11 12 14
-32 3 -51z m-200 25 c9 -16 9 -23 0 -26 -6 -2 -11 -10 -11 -18 0 -8 -3 -14 -8
-14 -4 0 -7 18 -7 40 0 45 9 51 26 18z m179 -8 c0 -10 -5 -20 -11 -22 -24 -8
19 -36 48 -30 21 3 25 2 17 -7 -6 -7 -20 -14 -30 -15 -10 -2 -20 -8 -22 -14
-2 -6 6 -8 20 -5 21 5 21 4 8 -10 -20 -20 -72 -11 -89 15 -7 11 -8 17 -2 13 6
-3 11 0 11 7 1 8 6 6 15 -6 13 -17 15 -17 15 -4 0 9 -5 20 -10 23 -7 4 -7 12
0 25 5 10 10 28 10 40 0 12 5 18 10 15 6 -3 10 -15 10 -25z m199 -10 c14 -21
13 -21 -36 -19 -27 1 -56 -1 -64 -5 -8 -4 -3 2 10 13 28 25 20 27 -14 5 -28
-18 -33 -9 -9 17 22 25 94 18 113 -11z m-505 -24 c18 7 68 -46 57 -61 -6 -9
-7 -17 -2 -42 1 -5 6 -1 11 7 8 11 9 8 5 -11 -5 -19 -2 -28 9 -32 9 -4 16 -12
16 -19 0 -7 -20 8 -45 32 -25 24 -45 39 -45 33 0 -8 -21 -11 -62 -10 -35 1
-62 5 -60 10 1 4 2 13 2 21 0 11 12 13 53 11 59 -4 99 3 92 15 -3 5 -34 7 -69
5 -59 -3 -63 -1 -58 17 6 24 41 39 64 27 9 -5 23 -6 32 -3z m90 -41 c11 -30
23 -52 29 -48 5 3 7 -3 3 -14 -4 -11 -2 -33 4 -48 6 -16 7 -32 2 -37 -5 -5
-22 37 -39 97 -32 110 -31 145 1 50z m434 20 c6 -3 12 -12 12 -22 0 -16 -10
-18 -74 -18 -58 0 -72 3 -64 13 13 15 -4 16 -20 0 -7 -7 -12 -8 -12 -2 0 21
53 41 99 37 25 -3 52 -6 59 -8z m-346 -107 c0 -16 5 -28 10 -28 4 0 8 -11 8
-25 0 -14 -5 -25 -11 -25 -6 0 -9 9 -6 20 3 10 -1 24 -8 30 -15 13 -26 75 -18
98 5 12 9 9 15 -13 5 -17 9 -42 10 -57z m315 47 c44 2 54 -1 59 -17 7 -23 2
-29 -22 -29 -99 2 -184 8 -190 13 -3 4 -14 -2 -23 -12 -11 -14 -23 -18 -38
-14 -27 7 -28 13 -8 40 13 17 14 18 15 1 0 -15 3 -16 21 -7 11 7 23 9 27 6 3
-3 12 0 21 8 18 16 61 25 76 16 6 -4 34 -6 62 -5z m-448 -76 c-8 -5 -17 -9
-21 -9 -4 0 -4 -8 -1 -17 6 -16 5 -16 -10 -4 -26 21 -30 7 -6 -22 23 -31 30
-28 -73 -32 -57 -3 -58 -2 -58 24 0 25 2 26 50 25 28 0 50 3 50 8 0 9 -9 11
-60 12 -30 1 -35 5 -38 27 -3 26 -2 26 53 22 30 -2 63 1 73 6 23 13 63 -26 41
-40z m419 15 l93 1 -3 -25 -3 -25 -117 0 c-112 0 -118 1 -118 21 0 28 19 45
39 35 9 -5 58 -8 109 -7z m-373 -34 c10 -11 15 -23 12 -27 -4 -4 -13 2 -21 12
-7 10 -18 15 -24 11 -13 -8 -17 6 -5 17 10 11 19 8 38 -13z m197 3 c10 -9 18
-26 18 -38 0 -12 9 -30 20 -40 24 -22 26 -72 3 -97 -18 -20 -48 -24 -58 -8 -3
6 0 10 8 10 8 0 21 7 28 16 12 15 10 16 -19 10 -39 -9 -41 1 -4 31 22 18 24
22 9 23 -11 0 -31 -13 -45 -30 -15 -16 -31 -30 -37 -30 -6 0 -5 3 1 8 12 7 18
32 15 67 -2 16 -5 14 -16 -10 l-13 -30 -1 32 c-2 82 45 127 91 86z m-185 -60
c-7 -6 -47 15 -47 26 0 18 13 18 32 -1 11 -11 17 -22 15 -25z m68 -32 c-3 -46
-3 -50 4 -21 7 31 9 32 11 10 2 -14 4 -29 4 -35 1 -5 5 -15 9 -22 13 -21 -52
17 -68 40 -21 30 -19 57 7 84 29 31 37 16 33 -56z m293 53 c94 1 109 -6 78
-36 -10 -10 -37 -14 -96 -12 -67 1 -86 5 -102 22 -23 23 -16 47 10 34 9 -5 59
-8 110 -8z m-427 -61 c0 -16 3 -22 6 -16 3 10 10 10 25 2 16 -9 19 -8 13 2 -6
8 -4 10 5 4 9 -5 10 -2 5 14 -4 12 -2 21 4 21 13 0 15 -37 2 -44 -5 -4 -4 -18
4 -34 16 -34 29 -93 17 -74 -5 8 -13 13 -18 13 -25 -2 -44 13 -44 35 0 18 5
24 22 24 26 0 19 9 -11 15 -11 2 -21 -1 -21 -7 0 -21 -12 0 -20 36 -4 21 -4
36 1 36 5 0 9 -12 10 -27z m-29 2 c4 -5 8 -17 8 -26 0 -12 -11 -15 -57 -14
-55 2 -68 10 -72 46 -1 10 114 5 121 -6z m524 -36 c-9 -26 -12 -27 -65 -22
-31 2 -69 4 -84 3 -16 0 -27 3 -24 7 2 5 7 16 10 25 5 14 19 16 90 15 l83 -2
-10 -26z m-381 -57 c4 -39 -11 -43 -17 -4 -3 15 -9 36 -13 47 -7 18 -6 19 9 4
9 -8 18 -30 21 -47z m-114 11 c5 -13 9 -26 9 -28 0 -2 -23 -3 -51 -2 -37 2
-55 7 -65 22 -22 29 -18 32 42 32 50 0 57 -2 65 -24z m167 -12 c22 -12 23 -11
17 10 -7 22 -7 22 10 5 34 -34 66 -39 96 -16 23 16 43 20 104 20 57 0 75 -3
75 -14 0 -21 -24 -37 -56 -37 -123 -1 -234 5 -234 12 0 5 -4 9 -10 9 -5 0 -10
-17 -10 -37 -1 -26 -3 -33 -9 -23 -10 18 -22 108 -13 93 4 -5 18 -16 30 -22z
m-83 -43 c17 -3 55 -31 55 -42 0 -7 -110 1 -117 8 -3 3 -14 1 -23 -4 -13 -7
-25 -4 -44 11 -14 11 -26 24 -26 29 0 7 90 6 155 -2z m345 -9 c0 -16 -53 -39
-87 -40 -95 -1 -173 3 -173 9 0 12 15 29 28 33 21 7 232 5 232 -2z"/>
<path d="M997 582 c-40 -42 -33 -62 8 -22 19 19 35 38 35 42 0 15 -16 8 -43
-20z"/>
<path d="M1075 600 c-11 -18 13 -36 31 -25 9 6 16 15 17 20 3 14 -40 18 -48 5z"/>
<path d="M1123 569 c-6 -8 -13 -27 -15 -44 -4 -35 -38 -50 -38 -16 0 14 -6 21
-18 21 -13 0 -21 -13 -30 -44 -13 -51 -56 -106 -83 -106 -24 0 -39 29 -40 82
l-1 43 -10 -42 c-9 -34 -7 -48 8 -79 27 -54 47 -64 77 -36 25 24 40 48 57 94
9 25 12 27 34 16 34 -15 50 -1 66 56 14 51 11 76 -7 55z"/>
<path d="M1181 526 c-57 -58 -45 -79 17 -29 26 21 49 39 51 40 3 2 -2 10 -10
18 -13 13 -20 10 -58 -29z"/>
<path d="M1208 479 c-51 -41 -49 -65 6 -89 64 -27 71 -49 21 -64 -16 -4 -25 3
-43 34 -12 22 -29 40 -36 40 -27 0 -34 -58 -13 -100 15 -28 5 -65 -21 -75 -8
-3 -31 4 -50 15 -26 16 -37 18 -43 9 -4 -7 -5 -17 -3 -24 6 -15 58 -45 78 -45
9 0 43 25 76 55 33 30 66 55 74 55 25 0 46 30 46 64 0 40 -16 55 -64 63 -20 3
-36 9 -36 14 0 5 18 18 41 29 39 20 47 42 18 48 -8 1 -31 -11 -51 -29z"/>
<path d="M1055 350 c-27 -39 -56 -72 -63 -75 -7 -3 -24 6 -38 20 -14 14 -26
25 -28 25 -1 0 -1 -14 2 -31 5 -33 40 -63 63 -54 19 8 134 150 134 166 0 30
-24 13 -70 -51z"/>
</g>
</svg>
